<?xml version="1.0" standalone="no"?><!DOCTYPE svg PUBLIC "-//W3C//DTD SVG 1.1//EN" "http://www.w3.org/Graphics/SVG/1.1/DTD/svg11.dtd"><svg t="1526228773351" class="icon" style="" viewBox="0 0 1024 1024" version="1.1" xmlns="http://www.w3.org/2000/svg" p-id="4166" xmlns:xlink="http://www.w3.org/1999/xlink" width="200" height="200"><defs><style type="text/css"></style></defs><path d="M1046.60115489 472.1713725L560.54518517 472.1713725 560.54518517-13.88459721C560.54518517-38.62926476 541.1029464-58.07150355 516.35827884-58.07150355 491.6136113-58.07150355 472.1713725-38.62926476 472.1713725-13.88459721L472.1713725 472.1713725-13.88459721 472.1713725C-38.62926476 472.1713725-58.07150355 491.6136113-58.07150355 516.35827884-58.07150355 541.1029464-38.62926476 560.54518517-13.88459721 560.54518517L472.1713725 560.54518517l0 486.05596972C472.1713725 1071.34582243 491.6136113 1090.78806123 516.35827884 1090.78806123 541.1029464 1090.78806123 560.54518517 1071.34582243 560.54518517 1046.60115489L560.54518517 560.54518517l486.05596972 0C1071.34582243 560.54518517 1090.78806123 541.1029464 1090.78806123 516.35827884 1090.78806123 491.6136113 1071.34582243 472.1713725 1046.60115489 472.1713725z" p-id="4167" fill="#8a8a8a"></path></svg>