<?xml version="1.0" standalone="no"?><!DOCTYPE svg PUBLIC "-//W3C//DTD SVG 1.1//EN" "http://www.w3.org/Graphics/SVG/1.1/DTD/svg11.dtd"><svg t="1525796481280" class="icon" style="" viewBox="0 0 1024 1024" version="1.1" xmlns="http://www.w3.org/2000/svg" p-id="19839" xmlns:xlink="http://www.w3.org/1999/xlink" width="200" height="200"><defs><style type="text/css"></style></defs><path d="M827.752937 960.298013c-0.085 38.139992-9.874998 62.354988-46.204991 62.289988-36.269993-0.08-44.204991-24.444995-44.119991-62.609987l-1.15-361.278928c-1.325 0.15-102.914979-13.824997-137.129973-116.074977 0 0 41.639992-483.008903 198.09896-482.623903 39.934992 0.085 28.519994 105.726979 28.519994 105.726979L827.752937 960.298013zM363.64703 473.40611l-18.536996 0 26.131995 488.080902c0 38.169992-34.451993 62.509987-70.761986 62.509987s-68.864986-24.339995-68.864986-62.509987l27.179995-487.610902-19.604996-0.385c-14.891997 0-86.784983-131.901974-86.784983-154.941969l33.769993-316.201937c0.088 0.405 47.316991 1.855 47.316991 1.855l-0.66 208.211958c0 23.979995-0.64 42.389992 23.189995 42.389992 23.826995 0 24.169995-18.431996 24.169995-42.389992L280.192046 4.202204l64.959987 0 0 210.986958c0 23.976995 3.134999 39.274992 26.964995 39.274992 23.829995 0 23.424995-15.296997 23.424995-39.274992L395.542023 4.202204c0 0 37.331993 0 39.421992 0l33.216993 314.346937C468.181009 341.782136 378.347027 473.40611 363.64703 473.40611z" p-id="19840" fill="#2aa515"></path></svg>