<?xml version="1.0" standalone="no"?><!DOCTYPE svg PUBLIC "-//W3C//DTD SVG 1.1//EN" "http://www.w3.org/Graphics/SVG/1.1/DTD/svg11.dtd"><svg t="1525795029407" class="icon" style="" viewBox="0 0 1024 1024" version="1.1" xmlns="http://www.w3.org/2000/svg" p-id="18500" xmlns:xlink="http://www.w3.org/1999/xlink" width="200" height="200"><defs><style type="text/css"></style></defs><path d="M928.422 423.597H472.19l53.276-53.276c17.44-17.436 17.44-45.713 0-63.147L392.837 174.546c-17.441-17.444-45.72-17.444-63.16 0l-132.63 132.628c-17.44 17.435-17.44 45.712 0 63.147l53.276 53.276H133.497V262.83c0-14.801-11.999-26.795-26.797-26.795H88.837c-14.797 0-26.795 11.993-26.795 26.795v232.217c0 14.8 11.997 26.793 26.795 26.793h839.585c14.799 0 26.797-11.993 26.797-26.793V450.39c-0.001-14.802-11.998-26.794-26.797-26.794z m17.865 125.04H70.973a8.928 8.928 0 0 0-8.931 8.932v80.382c0 4.936 3.999 8.932 8.931 8.932h875.313a8.93 8.93 0 0 0 8.932-8.932v-80.382a8.927 8.927 0 0 0-8.931-8.933zM151.359 673.674H70.973a8.93 8.93 0 0 0-8.931 8.933v160.765c0 4.937 3.999 8.93 8.931 8.93h80.385a8.929 8.929 0 0 0 8.933-8.93V682.608c0-4.937-4-8.933-8.932-8.933z m794.928 0H865.9a8.93 8.93 0 0 0-8.933 8.933v160.765a8.928 8.928 0 0 0 8.933 8.93h80.386a8.928 8.928 0 0 0 8.932-8.93V682.608a8.931 8.931 0 0 0-8.932-8.933z" p-id="18501" fill="#2aa515"></path></svg>