<?xml version="1.0" standalone="no"?><!DOCTYPE svg PUBLIC "-//W3C//DTD SVG 1.1//EN" "http://www.w3.org/Graphics/SVG/1.1/DTD/svg11.dtd"><svg t="1525764701970" class="icon" style="" viewBox="0 0 1024 1024" version="1.1" xmlns="http://www.w3.org/2000/svg" p-id="15962" xmlns:xlink="http://www.w3.org/1999/xlink" width="200" height="200"><defs><style type="text/css"></style></defs><path d="M881.408 1024H142.592A142.592 142.592 0 0 1 0 881.664V142.336A142.592 142.592 0 0 1 142.592 0H606.72a36.608 36.608 0 1 1 0 73.472H142.592a68.864 68.864 0 0 0-68.608 68.864v739.328a68.864 68.864 0 0 0 68.608 68.864h738.816a68.864 68.864 0 0 0 68.608-68.864V409.6A37.12 37.12 0 0 1 1024 409.6v472.064A142.592 142.592 0 0 1 881.408 1024z" p-id="15963" fill="#707070"></path><path d="M592.128 303.616l-63.488 66.048-57.088 59.648c-17.152 17.92-65.28 66.816-76.8 79.104l-22.016 23.296a133.376 133.376 0 0 0-16.896 20.736 137.216 137.216 0 0 0-10.496 20.736 185.344 185.344 0 0 0-10.24 26.88q-6.144 19.456-13.056 42.752t-12.544 44.8a286.464 286.464 0 0 0-7.424 33.024 39.936 39.936 0 0 0 5.12 30.464q7.168 8.96 28.16 6.656 10.24-1.536 30.976-7.424t43.264-13.568q22.272-7.424 44.288-15.872a332.8 332.8 0 0 0 32.512-13.824 97.28 97.28 0 0 0 21.248-13.056q10.24-8.192 17.92-15.616 3.072-2.56 19.456-19.456L585.728 614.4c16.64-17.664 69.376-70.912 90.112-92.16l62.72-66.048 163.584-173.056-147.712-148.736z m0 0M1024 120.832a92.672 92.672 0 0 0-11.776-48.128 124.928 124.928 0 0 0-23.552-30.976A115.968 115.968 0 0 0 930.56 10.496a106.752 106.752 0 0 0-14.08-1.536h-2.304a86.528 86.528 0 0 0-25.6 4.096 84.736 84.736 0 0 0-28.416 15.872q-10.752 9.216-25.6 25.6l-29.696 26.112L951.808 230.4q6.912-6.144 14.592-14.336l16.128-16.384 20.992-20.48a80.896 80.896 0 0 0 15.616-25.6A76.8 76.8 0 0 0 1024 128v-5.632z m0 0" p-id="15964" fill="#707070"></path></svg>