<?xml version="1.0" standalone="no"?><!DOCTYPE svg PUBLIC "-//W3C//DTD SVG 1.1//EN" "http://www.w3.org/Graphics/SVG/1.1/DTD/svg11.dtd"><svg t="1525752832068" class="icon" style="" viewBox="0 0 1024 1024" version="1.1" xmlns="http://www.w3.org/2000/svg" p-id="2881" xmlns:xlink="http://www.w3.org/1999/xlink" width="200" height="200"><defs><style type="text/css"></style></defs><path d="M977.6 395.2c-9.6-38.4-72-60.8-164.8-65.6C752 228.8 640 160 512 160c-187.2 0-342.4 148.8-352 334.4-80 46.4-123.2 94.4-113.6 134.4 9.6 38.4 72 60.8 163.2 65.6C272 795.2 384 864 512 864c188.8 0 342.4-148.8 352-334.4 78.4-46.4 123.2-94.4 113.6-134.4zM512 224c99.2 0 185.6 49.6 236.8 124.8 1.6 1.6 1.6 3.2 3.2 4.8 3.2 4.8 6.4 11.2 11.2 17.6 1.6 1.6 1.6 3.2 3.2 4.8 19.2 35.2 30.4 73.6 33.6 116.8-72 36.8-164.8 72-267.2 97.6-102.4 25.6-201.6 38.4-281.6 40-16-35.2-25.6-75.2-25.6-116.8C224 353.6 353.6 224 512 224zM120 614.4c-1.6-1.6-4.8-1.6-6.4-3.2 1.6-1.6 3.2-3.2 3.2-4.8 9.6-11.2 25.6-25.6 46.4-38.4 3.2 20.8 8 40 14.4 59.2-22.4-3.2-43.2-8-57.6-12.8zM512 800c-91.2 0-171.2-41.6-224-107.2 76.8-3.2 164.8-17.6 259.2-40 92.8-24 179.2-52.8 248-86.4C769.6 699.2 652.8 800 512 800z m393.6-382.4c-9.6 11.2-25.6 25.6-46.4 40-3.2-20.8-8-40-14.4-59.2 24 3.2 44.8 6.4 59.2 12.8 1.6 1.6 4.8 1.6 6.4 3.2-1.6 0-3.2 1.6-4.8 3.2z" fill="#4A576A" p-id="2882"></path><path d="M336 512m-32 0a32 32 0 1 0 64 0 32 32 0 1 0-64 0Z" fill="#4A576A" p-id="2883"></path><path d="M624 384m-48 0a48 48 0 1 0 96 0 48 48 0 1 0-96 0Z" fill="#4A576A" p-id="2884"></path><path d="M480 720m-32 0a32 32 0 1 0 64 0 32 32 0 1 0-64 0Z" fill="#4A576A" p-id="2885"></path></svg>