<?xml version="1.0" standalone="no"?><!DOCTYPE svg PUBLIC "-//W3C//DTD SVG 1.1//EN" "http://www.w3.org/Graphics/SVG/1.1/DTD/svg11.dtd"><svg t="1526220705783" class="icon" style="" viewBox="0 0 1152 1024" version="1.1" xmlns="http://www.w3.org/2000/svg" p-id="3030" xmlns:xlink="http://www.w3.org/1999/xlink" width="225" height="200"><defs><style type="text/css"></style></defs><path d="M976 625.4V912c0 26.6-21.4 48-48 48H696c-13.2 0-24-10.8-24-24V712c0-13.2-10.8-24-24-24h-144c-13.2 0-24 10.8-24 24v224c0 13.2-10.8 24-24 24H224c-26.6 0-48-21.4-48-48V625.4c0-7.2 3.2-14 8.8-18.6l376-309.6c8.8-7.2 21.6-7.2 30.6 0l376 309.6c5.4 4.6 8.6 11.4 8.6 18.6z m167.2-121.8L976 365.8V88.8c0-13.2-10.8-24-24-24h-112c-13.2 0-24 10.8-24 24V234l-179-147.4c-35.4-29.2-86.6-29.2-122 0L8.8 503.6c-10.2 8.4-11.6 23.6-3.2 33.8l51 62c8.4 10.2 23.6 11.6 33.8 3.2l470.4-387.4c8.8-7.2 21.6-7.2 30.6 0l470.4 387.4c10.2 8.4 25.4 7 33.8-3.2l51-62c8.4-10.4 6.8-25.4-3.4-33.8z" p-id="3031" fill="#2aa515"></path></svg>