<?xml version="1.0" standalone="no"?><!DOCTYPE svg PUBLIC "-//W3C//DTD SVG 1.1//EN" "http://www.w3.org/Graphics/SVG/1.1/DTD/svg11.dtd"><svg t="1525753927254" class="icon" style="" viewBox="0 0 1024 1024" version="1.1" xmlns="http://www.w3.org/2000/svg" p-id="9979" xmlns:xlink="http://www.w3.org/1999/xlink" width="200" height="200"><defs><style type="text/css"></style></defs><path d="M249.00000031 773h-17.50000031c-10.77 0-19.5 8.73-19.5 19.5v1.00000031c0 10.77 8.73 19.5 19.5 19.5h562.00000031c10.77 0 19.5-8.73 19.5-19.5v-1.00000031c0-10.77-8.73-19.5-19.5-19.5H776V261.99999969c0-27.61399969-22.386-49.99999969-49.99999969-49.99999969H486.99999969c-27.61399969 0-49.99999969 22.386-49.99999969 49.99999969v175.00000031h70.99999969c44.18299969 0 79.99999969 35.817 80.00000062 79.99999969v234h-0.02500031c-0.52000031 10.581-9.26500031 19.00000031-19.97500031 19.00000031s-19.45399969-8.41900031-19.97499938-19.00000031H548V527c0-27.61399969-22.386-49.99999969-49.99999969-49.99999969H299c-27.61399969 0-49.99999969 22.386-49.99999969 49.99999969v246z m262.99999969 219C246.90300031 992 32 777.09699969 32 512S246.90300031 32 512 32s480 214.90300031 480 480-214.90300031 480-480 480zM323.52999969 550.50000031h37.43800031c10.338 0 18.72 8.493 18.72 18.96999938 0 10.47499969-8.382 18.96799969-18.72 18.96800062h-37.437c-10.338 0-18.71899969-8.493-18.71899969-18.969s8.38000031-18.96799969 18.71899969-18.96800062z m0 75.87399938h37.43800031c10.338 0 18.72 8.493 18.72 18.969s-8.382 18.96799969-18.72 18.96800062h-37.437c-10.338 0-18.71899969-8.49199969-18.71899969-18.96800062 0-10.476 8.38000031-18.969 18.71899969-18.969z m111.81400031-75.873h37.43800031c10.338 0 18.71899969 8.49199969 18.71899969 18.96800062 0 10.476-8.38000031 18.969-18.71899969 18.969h-37.43800031c-10.338 0-18.71800031-8.493-18.71800031-18.969s8.38000031-18.96799969 18.71800031-18.96800062z m0 75.873h37.43800031c10.338 0 18.71899969 8.493 18.71899969 18.969s-8.38000031 18.96799969-18.71899969 18.96800062h-37.43800031c-10.338 0-18.71800031-8.49199969-18.71800031-18.96800062 0-10.476 8.38000031-18.969 18.71800031-18.969z m207.93700031-340.49899969h36.939c10.476 0 18.96799969 8.493 18.96799969 18.969s-8.49199969 18.96799969-18.96799969 18.96799969H643.28c-10.476 0-18.96799969-8.49199969-18.96799969-18.96799969 0-10.476 8.49199969-18.969 18.96799969-18.969zM642.968 360.99999969h36.939c10.476 0 18.96799969 8.49199969 18.96799969 18.96800062 0 10.476-8.49199969 18.969-18.96799969 18.969h-36.939c-10.476 0-18.96799969-8.493-18.96799969-18.969S632.492 360.99999969 642.968 360.99999969z m-111 0h36.939c10.476 0 18.96799969 8.49199969 18.96799969 18.96800062 0 10.476-8.49199969 18.969-18.96799969 18.969h-36.939c-10.476 0-18.96799969-8.493-18.96799969-18.969S521.492 360.99999969 531.968 360.99999969z m-1.49899969-75.12499969h36.939c10.476 0 18.96799969 8.493 18.96799969 18.969s-8.49199969 18.96799969-18.96799969 18.96799969h-36.939c-10.476 0-18.96799969-8.49199969-18.96800062-18.96799969 0-10.476 8.49199969-18.969 18.96800062-18.969z" fill="#4BB9B0" p-id="9980"></path></svg>