<?xml version="1.0" standalone="no"?><!DOCTYPE svg PUBLIC "-//W3C//DTD SVG 1.1//EN" "http://www.w3.org/Graphics/SVG/1.1/DTD/svg11.dtd"><svg t="1525753877674" class="icon" style="" viewBox="0 0 1024 1024" version="1.1" xmlns="http://www.w3.org/2000/svg" p-id="8851" xmlns:xlink="http://www.w3.org/1999/xlink" width="200" height="200"><defs><style type="text/css"></style></defs><path d="M511.997639 3.0e-06c-282.778904 0-511.997642 229.221077-511.997642 511.999981 0 282.760203 229.218737 511.999974 511.997642 511.999974 282.778893 0 512.002315-229.240936 512.002315-511.999974 0.001142-282.77774-229.222246-511.999981-512.002315-511.999981zm-10.69965 457.721293l-0.03859-21.519637c0 23.76051-19.240209 43.040439-43.018233 43.040439l0 128.957742c0 0.040874 0.03859 0.040874 0.03859 0.040874l0 172.039066c0 11.901868-9.617758 21.519637-21.498595 21.519637l-43.001883 0c-11.880837 0-21.519637-9.617769-21.519637-21.519637l0-42.998378-0.03859-258.039316c-23.721954 0-42.899059-19.219178-43.001872-42.920101l0.059598-193.640486 42.941132 0 0 172.037902 21.559358 0 0-172.037902 43.001883 0 0 172.037902 21.498595 0 0-172.037902 43.018244 0 0 215.039785zm193.480427 322.558496c0 11.879673-9.558183 21.481081-21.46005 21.481081l-42.997213 0c-11.863312 0-21.503276-9.601408-21.503276-21.481081l0-236.559411-43.018233 0 0-236.53838c0-35.621492 28.881338-64.50049 64.522685-64.50049 35.61914 0 64.457252 28.878997 64.457252 64.50049l0 473.097791z" fill="#d4237a" p-id="8852"></path></svg>