<?xml version="1.0" standalone="no"?><!DOCTYPE svg PUBLIC "-//W3C//DTD SVG 1.1//EN" "http://www.w3.org/Graphics/SVG/1.1/DTD/svg11.dtd"><svg t="1525793264439" class="icon" style="" viewBox="0 0 1024 1024" version="1.1" xmlns="http://www.w3.org/2000/svg" p-id="17739" xmlns:xlink="http://www.w3.org/1999/xlink" width="200" height="200"><defs><style type="text/css"></style></defs><path d="M845.027556 861.696l-129.706667-129.479111A339.342222 339.342222 0 0 0 796.444444 511.658667 341.162667 341.162667 0 0 0 455.111111 170.666667C266.581333 170.666667 113.777778 323.356444 113.777778 511.658667a341.162667 341.162667 0 0 0 341.333333 340.992 340.024889 340.024889 0 0 0 219.989333-80.327111l129.706667 129.592888a28.444444 28.444444 0 0 0 40.220445-40.220444zM455.111111 795.875556c-157.070222 0-284.444444-127.203556-284.444444-284.16a284.273778 284.273778 0 0 1 284.444444-284.16c157.127111 0 284.444444 127.203556 284.444445 284.16a284.273778 284.273778 0 0 1-284.444445 284.16z" fill="#ffffff" p-id="17740"></path></svg>