<?xml version="1.0" encoding="utf-8"?>
<!-- Generator: Adobe Illustrator 21.0.2, SVG Export Plug-In . SVG Version: 6.00 Build 0)  -->
<svg version="1.1" id="Simplified_Chinese" xmlns="http://www.w3.org/2000/svg" xmlns:xlink="http://www.w3.org/1999/xlink" x="0px"
	 y="0px" viewBox="0 0 250 30" style="enable-background:new 0 0 250 30;" xml:space="preserve">
<style type="text/css">
	.st0{fill:#F8C40F;}
	.st1{fill:#FFFFFF;}
	.st2{fill:#EF6945;}
	.st3{fill:#00AF87;}
	.st4{fill:#000A12;}
	.st5{opacity:0.5;fill:#00AF87;enable-background:new    ;}
</style>
<g>
	<g>
		<path class="st0" d="M24.4,5.2c1-0.4,2.9-0.5,3.9-0.6c-2.6-1.3-6.6-1.9-9.9-1.9s-6.7,0.5-9.2,1.9c4.5,0.3,9.4,4,9.2,9
			c0.1-1.2,0.3-2.2,0.8-3.3C20.2,7.9,22.1,6.3,24.4,5.2"/>
		<path class="st1" d="M27.7,10.5c-1.6,0-3,1.3-3,3c0,1.6,1.3,3,3,3c1.6,0,3-1.3,3-3C30.6,11.9,29.3,10.5,27.7,10.5 M27.7,15.1
			c-0.8,0-1.5-0.7-1.5-1.5s0.7-1.5,1.5-1.5s1.5,0.7,1.5,1.5C29.2,14.5,28.5,15.1,27.7,15.1"/>
		<path class="st1" d="M25.1,6.7c-1.8,0.7-3.3,2-4.1,3.8c-0.8,1.8-0.9,3.8-0.2,5.6l0,0c0.7,1.8,2,3.3,3.8,4.1
			c1.8,0.8,3.8,0.9,5.6,0.2C34,19,36,14.8,34.5,11C33.2,7.4,28.9,5.4,25.1,6.7 M27.7,18.2c-2.5,0-4.5-2-4.5-4.5s2-4.5,4.5-4.5
			s4.5,2,4.5,4.5C32.2,16,30.2,18.2,27.7,18.2"/>
		<path class="st1" d="M9.2,10.5c-1.6,0-3,1.3-3,3c0,1.6,1.3,3,3,3c1.6,0,3-1.3,3-3C12.2,11.9,10.8,10.5,9.2,10.5 M9.2,15.1
			c-0.8,0-1.5-0.7-1.5-1.5s0.7-1.5,1.5-1.5s1.5,0.7,1.5,1.5C10.7,14.5,10,15.1,9.2,15.1"/>
		<path class="st1" d="M9.3,6.3c-4,0-7.3,3.3-7.3,7.4c0,4,3.3,7.3,7.3,7.3c4.1,0,7.4-3.3,7.4-7.3C16.7,9.5,13.4,6.3,9.3,6.3
			 M9.2,18.2c-2.5,0-4.6-2-4.6-4.5s2-4.5,4.6-4.5c2.5,0,4.5,2,4.5,4.5C13.7,16,11.7,18.2,9.2,18.2"/>
		<path class="st2" d="M9.2,12.1c-0.8,0-1.5,0.7-1.5,1.5S8.4,15,9.2,15s1.5-0.7,1.5-1.5S10,12.1,9.2,12.1"/>
		<path class="st3" d="M27.7,12.1c-0.8,0-1.5,0.7-1.5,1.5s0.7,1.5,1.5,1.5s1.5-0.7,1.5-1.5S28.5,12.1,27.7,12.1"/>
		<path class="st4" d="M35.1,8.1c0.4-1.8,1.8-3.7,1.8-3.7h-6.1C27.4,2.3,23.2,1,18.5,1C13.7,1,9.3,2.3,5.9,4.5H0.1
			c0,0,1.4,1.8,1.8,3.6c-1.1,1.5-1.8,3.4-1.8,5.4c0,5.1,4.1,9.2,9.2,9.2c2.9,0,5.5-1.4,7.2-3.5l2,2.9l2-3c0.9,1.1,2,2,3.4,2.7
			c2.2,1,4.7,1.1,7,0.3c4.8-1.8,7.2-7.1,5.4-11.8C36,9.7,35.6,8.8,35.1,8.1 M24.6,20.3c-1.8-0.8-3.1-2.3-3.8-4.1l0,0
			c-0.7-1.8-0.6-3.8,0.2-5.6c0.8-1.8,2.3-3.1,4.1-3.8c3.8-1.4,8,0.5,9.4,4.3c1.4,3.8-0.5,8-4.3,9.4C28.4,21.2,26.4,21.2,24.6,20.3
			 M9.3,20.9c-4,0-7.3-3.3-7.3-7.3c0-4.1,3.3-7.4,7.4-7.4s7.4,3.3,7.4,7.4C16.7,17.6,13.4,20.9,9.3,20.9 M24.5,5
			c-2.3,0.9-4.1,2.6-5.2,4.8c-0.5,1-0.7,2.1-0.8,3.1c-0.3-4.7-4.2-8.4-9-8.5c2.6-1.1,5.7-1.7,9-1.7s6.3,0.6,8.9,1.8
			C26.4,4.6,25.4,4.7,24.5,5"/>
		<path class="st4" d="M9.2,9.1c-2.5,0-4.6,2-4.6,4.5s2,4.5,4.6,4.5c2.5,0,4.5-2,4.5-4.5S11.7,9.1,9.2,9.1 M9.2,16.5
			c-1.6,0-3-1.3-3-3c0-1.6,1.3-3,3-3c1.6,0,3,1.3,3,3S10.8,16.5,9.2,16.5"/>
		<path class="st4" d="M27.7,9.1c-2.5,0-4.5,2-4.5,4.5s2,4.5,4.5,4.5s4.5-2,4.5-4.5S30.2,9.1,27.7,9.1 M27.7,16.5c-1.6,0-3-1.3-3-3
			c0-1.6,1.3-3,3-3c1.6,0,3,1.3,3,3C30.6,15.2,29.3,16.5,27.7,16.5"/>
	</g>
	<g>
		<path class="st4" d="M47.5,2.6l-2.7,0.9V7h-3v2.3h2.9v7.5c0,3.6,1.2,5.1,4.2,5.1c0.8,0,1.5-0.1,2.2-0.3h0.1v-2.4H51
			c-0.6,0.2-1,0.3-1.4,0.3c-1.4,0-1.9-0.8-1.9-2.9V9.4H51V7h-3.4V2.4L47.5,2.6z"/>
		<path class="st4" d="M56.7,9.4V7H54v14.7h3v-7.4c0-3.1,1.3-4.8,3.7-4.8c0.3,0,0.7,0,1.1,0.2L62,9.8v-3l-1.3-0.1
			C59,6.7,57.6,7.7,56.7,9.4"/>
		<path class="st4" d="M78,6.7c-2,0-3.8,1-4.9,2.7V7h-2.7v20.7h3v-8c1.1,1.5,2.6,2.3,4.5,2.3c3.8,0,6.2-3.1,6.2-7.9
			C84.1,9.5,81.6,6.7,78,6.7 M77.2,19.5c-2.4,0-3.8-2-3.8-5.3c0-3.1,1.5-5.1,3.9-5.1c2.3,0,3.7,1.9,3.7,5.1
			C81,17.5,79.5,19.5,77.2,19.5"/>
		<polygon class="st4" points="67.3,7 64.5,7 64.5,21.6 67.5,21.6 67.5,7 		"/>
		<path class="st4" d="M64.2,2.7c0,1,0.8,1.8,1.8,1.8s1.8-0.8,1.8-1.8S67,0.9,66,0.9S64.2,1.7,64.2,2.7"/>
	</g>
	<g>
		<path class="st3" d="M131.6,2.7c0,1,0.8,1.8,1.8,1.8s1.8-0.8,1.8-1.8s-0.8-1.8-1.8-1.8C132.3,0.9,131.6,1.7,131.6,2.7"/>
		<path class="st3" d="M92.8,6.7c-1.8,0-3.4,0.3-4.9,1h-0.1v2.5l0.2-0.1C89.5,9.4,90.8,9,92,9c2.2,0,3.4,1.2,3.4,3.4v0.1h-1.7
			c-4.9,0-7.6,1.8-7.6,5c0,2.6,1.9,4.4,4.7,4.4c2.1,0,3.6-0.8,4.8-2.3v2.1h2.7v-8.9C98.3,8.7,96.4,6.7,92.8,6.7 M95.4,15.5
			c0,2.5-1.5,4.2-3.9,4.2c-1.4,0-2.4-0.9-2.4-2.3c0-1.8,1.7-2.8,4.8-2.8h1.5V15.5L95.4,15.5z"/>
		<path class="st3" d="M111,0v9c-1.1-1.5-2.6-2.3-4.6-2.3c-3.6,0-6.1,3-6.1,7.5c0,4.6,2.5,7.8,6,7.8c2.1,0,3.7-0.9,4.9-2.7v2.5h2.7
			V0H111z M107.1,19.5c-2.3,0-3.7-2-3.7-5.2S104.8,9,107,9c2.5,0,3.9,2,3.9,5.3C111,17.3,109.4,19.5,107.1,19.5"/>
		<polygon class="st3" points="127.2,7 123,15.5 119.1,7 115.8,7 123,21.6 130.3,7 		"/>
		<polygon class="st3" points="134.6,7 131.9,7 131.9,21.6 134.9,21.6 134.9,7 		"/>
		<path class="st3" d="M138.3,10.8c0,2.1,1.4,3.2,4,4.4c1.7,0.8,2.5,1.3,2.5,2.4c0,1.2-1.1,1.9-2.7,1.9c-1.2,0-2.5-0.3-3.7-1
			l-0.2-0.1L138,21h0.1c1.2,0.5,2.5,0.7,3.8,0.7c3.6,0,6-1.7,6-4.4c0-2.2-1.5-3.4-4.1-4.6c-1.9-0.9-2.7-1.4-2.7-2.3
			c0-0.9,0.9-1.5,2.2-1.5c1.2,0,2.4,0.3,3.6,0.8l0.2,0.1l0.1-2.5h-0.1c-1.2-0.4-2.5-0.5-3.6-0.5C140.4,6.7,138.3,8.4,138.3,10.8"/>
		<path class="st3" d="M157.3,6.7c-4.5,0-7.3,2.9-7.3,7.7c0,4.7,2.8,7.7,7.3,7.7s7.3-2.9,7.3-7.7S161.8,6.7,157.3,6.7 M157.3,19.5
			c-2.5,0-4.1-2.1-4.1-5.3s1.7-5.3,4.1-5.3c2.5,0,4.1,2.1,4.1,5.3S159.8,19.5,157.3,19.5"/>
		<path class="st3" d="M170.1,9.4V7h-2.7v14.7h3v-7.4c0-3.1,1.3-4.8,3.7-4.8c0.3,0,0.7,0,1.1,0.2l0.2,0.1l0.1-2.9l-1.3-0.1
			C172.3,6.7,170.9,7.7,170.1,9.4"/>
		<path class="st5" d="M182.3,5.3c0.5,0.5,0.7,1.1,0.7,1.8s-0.3,1.4-0.8,1.9s-1.2,0.8-1.8,0.8c-0.7,0-1.4-0.3-1.9-0.8
			s-0.8-1.1-0.8-1.8s0.3-1.4,0.8-1.9s1.1-0.7,1.8-0.7C181.1,4.4,181.8,4.7,182.3,5.3z M178.9,5.6c-0.4,0.4-0.6,1-0.6,1.5
			c0,0.6,0.2,1.1,0.6,1.5c0.4,0.4,0.9,0.6,1.5,0.6s1.1-0.2,1.5-0.6c0.4-0.4,0.6-0.9,0.6-1.5s-0.2-1.1-0.6-1.5S181,5,180.4,5
			S179.3,5.1,178.9,5.6z M180.4,5.6c0.8,0,1.2,0.3,1.2,0.8c0,0.4-0.2,0.7-0.6,0.8l0.6,1.3h-0.9l-0.5-1.1H180v1.1h-0.8V5.6H180.4z
			 M180.1,6.8h0.3c0.3,0,0.5-0.1,0.5-0.4S180.7,6,180.3,6h-0.2V6.8L180.1,6.8z"/>
	</g>
</g>
<g>
	<path class="st4" d="M207.5,7h-2.9V5c-0.1-0.3-0.2-0.4-0.5-0.5l0,0l0,0c-0.3,0.1-0.4,0.2-0.5,0.5v2h-3.4V5c0-0.4-0.2-0.6-0.6-0.6
		c-0.2,0-0.5,0.1-0.6,0.6v2h-2.6c-0.3,0.1-0.4,0.2-0.5,0.6c0,0.2,0.1,0.4,0.5,0.4h2.6v1.8c0.1,0.3,0.2,0.5,0.6,0.5l0,0l0,0
		c0.5-0.1,0.6-0.3,0.6-0.6V7.9h3.4v1.9c0.1,0.3,0.2,0.4,0.5,0.5l0,0l0,0c0.3,0,0.5-0.2,0.5-0.5V7.9h2.9c0.3,0,0.4-0.1,0.4-0.4
		C207.9,7.1,207.7,7,207.5,7z"/>
	<path class="st4" d="M206.2,11.1h-8.7c-0.4,0.1-0.6,0.3-0.7,0.7v8.6c0.1,0.4,0.3,0.6,0.7,0.7h8.7l0,0c0.4,0,0.6-0.3,0.6-0.7v-8.6
		C206.8,11.4,206.6,11.1,206.2,11.1z M197.9,15.5v-3.1c0-0.3,0.1-0.3,0.2-0.3h3.1v3.4H197.9z M197.9,19.9v-3.4h3.3v3.6h-3.1
		C198,20,197.9,19.9,197.9,19.9z M202.3,15.5V12h3.3c0.1,0,0.2,0,0.2,0.3v3.1L202.3,15.5L202.3,15.5L202.3,15.5z M202.3,20v-3.6h3.5
		v3.4c0,0.2-0.1,0.2-0.2,0.2H202.3L202.3,20z"/>
	<path class="st4" d="M195.5,5.4c-0.3-0.2-0.5-0.1-0.7,0.2c-0.1,0.1-0.1,0.2-0.2,0.3c-0.5,0.8-0.9,1.4-1.2,1.8
		c-0.5-0.8-1.1-1.6-1.8-2.4c-0.2-0.3-0.5-0.3-0.7,0c-0.1,0.1-0.2,0.2-0.2,0.3c0,0.1,0,0.2,0.1,0.4c0.7,0.8,1.4,1.7,1.8,2.6
		c-0.6,0.6-1.2,1.1-1.9,1.5c-0.1,0.1-0.2,0.2-0.2,0.3s0,0.3,0.1,0.5c0.2,0.2,0.5,0.2,0.7,0.1c0.6-0.4,1.2-0.8,1.6-1.3
		c0.3,0.7,0.5,1.6,0.6,2.6c-0.8,1.4-1.8,2.5-3,3.2c-0.1,0.1-0.2,0.3-0.2,0.4s0,0.2,0.1,0.4c0.2,0.3,0.5,0.3,0.8,0.2
		c1-0.8,1.9-1.7,2.5-2.6c0,1.1,0.1,2.4,0.1,3.9c0.1,1.3-0.1,2.1-0.5,2.6c-0.2,0.2-0.5,0.3-0.9,0.3c-0.1,0-0.1,0-0.2,0H191
		c-0.2,0-0.3,0.1-0.4,0.2c-0.1,0.1-0.1,0.2-0.1,0.4c0.1,0.4,0.3,0.5,0.6,0.5s0.7,0,1.1-0.1c0.7,0,1.3-0.2,1.7-0.6
		c0.6-0.6,0.9-1.8,0.8-3.5c0-4.1-0.3-7.1-1.1-8.9c0.6-0.7,1.2-1.6,1.8-2.5c0.1-0.2,0.1-0.3,0.1-0.4C195.7,5.6,195.6,5.4,195.5,5.4z"
		/>
	<g>
		<path class="st4" d="M227.5,12.8h-4.8v-2.2h2.6c0.3-0.1,0.4-0.2,0.5-0.5l0,0l0,0c-0.1-0.3-0.2-0.4-0.5-0.5H219
			c-0.3,0.1-0.4,0.2-0.5,0.5l0,0l0,0c0,0.3,0.2,0.4,0.5,0.5h2.6v2.2h-5c-0.4,0-0.5,0.2-0.5,0.4c0.1,0.3,0.2,0.5,0.5,0.6h5v3.6
			c0,0.3,0,0.5-0.2,0.6c-0.1,0.2-0.4,0.2-0.8,0.2h-1.4c-0.2,0-0.3,0.1-0.4,0.2c-0.1,0.1-0.1,0.2,0,0.3c0.1,0.3,0.3,0.5,0.6,0.5h1.2
			l0,0c0.7,0,1.3-0.2,1.6-0.6c0.3-0.3,0.4-0.7,0.4-1.2v-3.7h4.8c0.3-0.1,0.4-0.2,0.5-0.6C228,13.1,227.9,12.8,227.5,12.8z"/>
		<path class="st4" d="M225.4,14.8c-0.3-0.2-0.5-0.2-0.7-0.1c-0.3,0.2-0.3,0.5-0.1,0.7s0.7,0.7,1.2,1.3c0.5,0.6,0.9,1.1,1.1,1.4
			c0.1,0.1,0.2,0.2,0.4,0.2c0.1,0,0.2,0,0.4-0.1l0,0c0.3-0.3,0.3-0.5,0.1-0.8C226.8,16.3,226.1,15.5,225.4,14.8z"/>
		<path class="st4" d="M216.2,10.4c0.2,0.2,0.4,0.2,0.6,0.2h0.1l0,0c2.2-1.3,3.9-2.8,5.2-4.4c0.2-0.2,0.3-0.2,0.5,0
			c1.1,1.8,2.9,3.2,5.2,4.2c0.3,0.2,0.6,0.1,0.9-0.2l0,0c0.2-0.5,0-0.7-0.2-0.8c-2.3-1-4-2.4-5.2-4.1c-0.4-0.5-0.7-0.7-1-0.7
			s-0.5,0.2-0.8,0.7c-1.3,1.7-3,3.2-5.2,4.4C216,9.8,216,10.1,216.2,10.4L216.2,10.4z"/>
		<path class="st4" d="M214.7,8.4L214.7,8.4c0.2,0.2,0.3,0.2,0.5,0.2c0.1,0,0.3,0,0.4-0.1c0.3-0.3,0.3-0.5,0.1-0.8
			c-0.4-0.6-1.1-1.3-2-2.4c-0.3-0.2-0.5-0.2-0.8-0.1c-0.1,0.1-0.2,0.2-0.2,0.3c0,0.1,0,0.3,0.1,0.4C213.4,6.7,214.1,7.7,214.7,8.4z"
			/>
		<path class="st4" d="M216.2,18.3L216.2,18.3c0.2,0.1,0.3,0.1,0.4,0.1s0.3,0,0.4-0.1c1.1-1,1.9-2,2.5-2.8c0.1-0.2,0.2-0.3,0.1-0.5
			c0-0.1-0.1-0.2-0.2-0.3c-0.3-0.2-0.6-0.1-0.8,0.1c-0.8,0.9-1.6,1.8-2.4,2.6l0,0C216,17.8,216,18,216.2,18.3L216.2,18.3z"/>
		<path class="st4" d="M228.3,20.4c-4.5,0-7.6,0-9.1-0.1c-1.9,0-3.4-0.7-4.4-2v-6.8c0-0.4-0.3-0.6-0.7-0.7h-2.2
			c-0.2,0-0.5,0.1-0.6,0.6l0,0l0,0c0.1,0.3,0.2,0.4,0.6,0.5h1.5c0.2,0,0.2,0.1,0.2,0.2v6c-0.1,0.2-0.4,0.5-0.8,0.9
			c-0.6,0.7-1,1.2-1.3,1.5c-0.2,0.3-0.1,0.5,0.1,0.8l0,0c0.1,0.1,0.3,0.1,0.4,0.1c0.2,0,0.3-0.1,0.4-0.2c0.4-0.5,0.9-1.2,1.6-2.1
			c0.1-0.1,0.2-0.1,0.3,0c1,1.3,2.6,2,4.8,2.1h3.3c2.7,0,4.6,0.1,5.6,0.1c0.4,0,0.6-0.2,0.8-0.5l0,0c0-0.2,0-0.3-0.1-0.4
			C228.6,20.5,228.5,20.4,228.3,20.4z"/>
	</g>
	<g>
		<path class="st4" d="M248.7,12.9h-3.5v-0.8h3.1c0.3-0.1,0.3-0.2,0.3-0.3c0-0.2-0.1-0.3-0.3-0.3h-3.1v-0.8h3.1
			c0.3-0.1,0.3-0.2,0.3-0.3c0-0.2-0.1-0.4-0.3-0.4h-3.1V9.1h3.4c0.1,0,0.3-0.1,0.3-0.4c0-0.2-0.1-0.3-0.3-0.3h-3.3
			c0-0.1-0.1-0.3-0.1-0.4c-0.1-0.4-0.1-0.5-0.1-0.5c-0.1-0.3-0.3-0.4-0.6-0.3l0,0c-0.3,0.2-0.4,0.4-0.3,0.6l0,0
			c0.1,0.2,0.2,0.4,0.3,0.6h-3.1c0-0.1,0.1-0.2,0.2-0.3c0-0.1,0.1-0.2,0.1-0.3l0,0l0,0c0.1-0.3-0.1-0.5-0.2-0.6
			c-0.3-0.2-0.5-0.1-0.7,0.3c-0.5,1.1-1.3,2.2-2.4,3.4c-0.2,0.2-0.2,0.4,0,0.6l0,0c0.2,0.2,0.4,0.1,0.7-0.1c0.3-0.3,0.7-0.7,1-1.1
			v3.3c0,0.2,0.1,0.4,0.5,0.4s0.5-0.2,0.5-0.4v-0.2h7.9c0.3-0.1,0.3-0.2,0.3-0.3C249.1,13.1,248.9,12.9,248.7,12.9z M244.2,12.1v0.8
			h-3.4v-0.8H244.2z M244.2,10.7v0.8h-3.4v-0.8H244.2z M244.2,9.1V10h-3.4V9.2L244.2,9.1L244.2,9.1z"/>
		<path class="st4" d="M242.7,16.6L242.7,16.6L242.7,16.6c-1-0.5-1.7-0.7-2-0.9c-0.2-0.1-0.4-0.1-0.6,0.1l0,0l0,0
			c-0.1,0.2,0,0.4,0.2,0.5c0.6,0.3,1.2,0.6,2,0.9c0.1,0.1,0.2,0.1,0.3,0.1s0.3-0.1,0.4-0.3l0,0C243,16.9,242.9,16.8,242.7,16.6
			L242.7,16.6L242.7,16.6z"/>
		<path class="st4" d="M248.8,6.3h-6.5c0-0.1,0-0.2-0.1-0.4c-0.1-0.5-0.2-0.9-0.2-1c-0.1-0.3-0.3-0.4-0.5-0.4h-0.1
			c-0.2,0-0.3,0.1-0.3,0.2C241,4.8,241,4.9,241,5.1c0.1,0.3,0.2,0.7,0.3,1.2h-6.7c-0.6,0-0.7,0.3-0.7,0.6v5.2c0,2.5-0.1,4.4-0.3,5.6
			S233,20,232.3,21c-0.2,0.3-0.1,0.5,0.1,0.8l0,0c0.1,0.1,0.2,0.1,0.3,0.1c0.2,0,0.3-0.1,0.5-0.3c0.7-1.2,1.1-2.4,1.4-3.7
			c0.2-1.3,0.4-3.2,0.4-5.7V7.3c0-0.2,0.1-0.3,0.2-0.3h13.7c0.3,0,0.4-0.1,0.4-0.4C249.2,6.4,249.1,6.3,248.8,6.3z"/>
		<path class="st4" d="M248.2,17.8h-10c-0.1,0-0.2-0.1-0.2-0.2v-1.8c0.1-0.2,0.2-0.2,0.2-0.2h8c0.1,0,0.1,0.1,0.2,0.1v0.1v0.1
			c0,0.2,0,0.3-0.1,0.4s-0.3,0.2-0.5,0.2c0,0-0.1,0-0.2,0h-1.8c-0.2,0.1-0.3,0.2-0.3,0.4c0.1,0.2,0.2,0.3,0.5,0.3h1.8
			c0.9,0.1,1.5-0.4,1.6-1.2l0.1-0.6c0-0.4-0.2-0.6-0.6-0.6h-5l0.1-0.3c0.1-0.1,0.1-0.2,0-0.3c0-0.1-0.2-0.2-0.3-0.3
			c-0.2-0.1-0.4,0-0.6,0.2l0,0v0.1l-0.3,0.6h-3.2c-0.6,0-0.7,0.3-0.7,0.6v2.5c0,0.4,0.3,0.6,0.7,0.7h10c0.2,0,0.2,0.1,0.2,0.2
			s0,0.3-0.1,0.5c0,0.2,0,0.3-0.1,0.5l0,0l0,0c0,0.4-0.1,0.7-0.2,0.8c-0.2,0.2-0.5,0.3-1,0.3c-0.1,0-0.2,0-0.3,0
			c-1.1,0-1.9,0-2.4-0.1l0,0l0,0c-0.3,0.1-0.4,0.2-0.3,0.5c0.1,0.3,0.3,0.5,0.5,0.5c0.3,0,0.7,0,1.4-0.1h1.1c0.1,0,0.1,0,0.2,0
			c1.4,0,2.2-0.6,2.3-1.8c0-0.2,0-0.5,0.1-0.8c0-0.3,0-0.6,0.1-0.8l0,0l0,0C248.8,17.9,248.6,17.8,248.2,17.8z"/>
		<path class="st4" d="M246,20.2c0.3-0.1,0.4-0.3,0.4-0.4l0,0c-0.1-0.2-0.2-0.3-0.4-0.3h-10.8c-0.2,0-0.4,0.2-0.4,0.3l0,0
			c0,0.2,0.1,0.4,0.4,0.4H246L246,20.2z"/>
		<path class="st4" d="M235.9,11.7c0.3-0.3,0.7-0.7,1-1.1v3.2c0.1,0.3,0.2,0.4,0.5,0.5l0,0l0,0c0.3-0.1,0.4-0.2,0.5-0.5V9.2
			c0.4-0.5,0.7-1,1-1.6c0.1-0.3,0-0.5-0.2-0.6c-0.3-0.1-0.5,0-0.7,0.2c-0.7,1.4-1.6,2.6-2.8,3.6c-0.2,0.2-0.2,0.4,0,0.6l0,0
			C235.4,11.8,235.6,11.8,235.9,11.7z"/>
	</g>
</g>
</svg>
