<?xml version="1.0" standalone="no"?><!DOCTYPE svg PUBLIC "-//W3C//DTD SVG 1.1//EN" "http://www.w3.org/Graphics/SVG/1.1/DTD/svg11.dtd"><svg t="1525796761993" class="icon" style="" viewBox="0 0 1024 1024" version="1.1" xmlns="http://www.w3.org/2000/svg" p-id="20023" xmlns:xlink="http://www.w3.org/1999/xlink" width="200" height="200"><defs><style type="text/css"></style></defs><path d="M910.518 301.251c-6.609-23.507-16.256-47.276-28.672-70.647l-0.068-0.127c-11.4-20.649-25.248-40.365-41.154-58.6l-1.344-1.396c-15.088-16.996-31.803-31.831-49.688-44.097l-0.178-0.119c-18.557-12.092-38.123-21.954-58.156-29.31l-0.162-0.058c-26.629-9.208-53.326-13.877-79.348-13.877-8.121 0-16.281 0.459-24.254 1.367-33.309 3.803-65.084 16.02-94.492 36.346-6.668 4.674-13.98 7.145-21.149 7.145-6.996 0-14.229-2.473-20.929-7.159-29.081-20.269-60.86-32.493-94.45-36.331a212.568 212.568 0 0 0-24.131-1.368c-25.93 0-52.667 4.667-79.467 13.871l-0.176 0.063c-20.589 7.553-40.179 17.424-58.227 29.341l-0.132 0.088c-17.902 12.28-34.663 27.17-49.766 44.199-15.927 17.657-30.196 37.806-42.414 59.888l-0.079 0.146c-11.948 22.569-21.573 46.311-28.606 70.565l-0.031 0.111c-3.237 11.72 0.662 23.912 9.917 31.047 5.104 3.954 11.166 6.043 17.531 6.043 8.851 0 17.074-4.078 22.597-11.232 9.24-12.125 18.916-22.892 28.759-32.003l1.541-1.538c9.642-8.921 20.828-17.533 32.338-24.9 11.896-7.558 22.715-12.991 33.078-16.611l0.145-0.052c10.556-3.892 21.269-6.792 31.854-8.631a261.445 261.445 0 0 0-11.559 12.021c-24.09 25.039-45.192 54.124-62.731 86.46-14.563 25.366-26.263 53.141-34.768 82.521-8.476 28.885-13.603 58.319-15.243 87.567-1.536 32.668 0.391 64.006 5.728 93.147l0.469 2.559 0.475 0.516c6.077 30.729 15.366 60.056 27.625 87.211 4.497 10.44 14.929 17.18 26.607 17.18l0.385-0.008c15.416-0.66 27.957-14.029 27.957-29.803l-0.002-0.197c-0.491-22.375 0.617-42.397 3.393-61.237 2.976-20.647 7.498-39.868 13.843-58.808 6.263-19.051 13.53-36.237 22.216-52.543a341.801 341.801 0 0 1 31.297-48.412l0.066-0.086c19.362-25.642 40.1-47.033 61.637-63.582l0.128-0.1c23.448-18.7 47.863-32.159 72.71-40.1l42.023 236.452c3.319 18.705 5.003 37.609 5.003 56.186 0 57.43-16.81 109.277-48.558 149.869-32.775 41.088-79.368 68.105-134.741 78.129l-0.137 0.025c-11.878 2.342-23.385 3.691-35.18 4.129l-0.166 0.008c-18.194 1.014-27.316 15.859-26.924 29.971 0.394 14.154 10.35 28.512 28.617 28.512h235.624c6.471 0 13.43-0.557 22.563-1.744l0.588-0.11c37.541-7.426 65.338-30.749 82.613-69.284 14.273-31.631 21.512-73.396 21.512-124.126 0-44.025-5.686-98.375-16.896-161.541l-37.406-210.258c11.834 6.443 23.457 14.323 35.189 23.838l0.146 0.116c22.416 17.417 43.162 38.807 61.66 63.574l0.146 0.191c12.031 15.241 22.523 31.541 31.227 48.525 8.684 16.545 16.242 34.172 22.461 52.391 6.246 19.273 10.703 38.502 13.637 58.857 2.861 18.715 4.078 38.879 3.615 59.937-0.928 12.099 5.84 23.421 16.932 28.294a27.471 27.471 0 0 0 11.723 2.602c11.01 0 21.207-6.527 26.02-16.717 12.732-27.736 22.275-58.06 28.377-90.175 5.992-32.534 7.994-64.003 5.949-93.531-1.658-28.96-6.707-58.354-15.033-87.454-8.469-28.456-19.998-56.18-34.266-82.403l-0.063-0.111c-18.824-33.468-40.162-62.556-63.42-86.455a263.945 263.945 0 0 0-11.502-11.976c10.256 1.832 20.514 4.567 30.594 8.166l1.355 0.471c10.332 3.77 20.975 9.025 31.637 15.625l1.455 0.991c10.133 6.485 20.879 14.728 31.941 24.498l1.039 0.812c11.639 11.33 21.068 21.802 28.814 31.994 5.289 7.708 14.443 12.484 23.967 12.485 2.547 0 5.061-0.348 7.471-1.035l0.248-0.075c15.175-4.805 23.616-20.682 19.226-36.123zM688.771 182.53l-0.277 0.013c-17.922 1.113-32.814 3.376-45.521 6.919-7.201 1.814-13.303 6.397-17.191 12.918-3.998 6.702-5.168 14.875-3.211 22.422l0.205 0.675c2.824 8.189 7.84 14.332 14.15 17.352 22.691 12.894 45.027 30.545 66.35 52.425 19.82 20.622 37.994 45.709 54.025 74.583 12.307 22.047 22.041 45.228 29.734 70.775 6.979 24.083 11.314 49.126 12.893 74.438l0.014 0.68c0.27 5.045 0.426 10.143 0.469 15.283-6.221-16.854-13.488-32.909-21.684-47.877-9.67-18.971-21.85-38.178-36.248-57.148-22.512-29.138-46.684-54.021-71.84-73.958-48.445-38.432-103.314-58.746-158.674-58.746-55.359 0-110.226 20.314-158.667 58.745-25.09 19.899-49.259 44.78-71.834 73.952l-0.095 0.124c-14.118 18.912-26.264 38.085-36.101 56.992-8.183 14.9-15.448 30.914-21.674 47.757 0.037-5.072 0.168-10.273 0.391-15.613 1.604-25.496 5.955-50.602 12.906-74.538 7.726-25.649 17.451-48.832 29.738-70.877 16.064-28.879 34.249-53.969 54.072-74.597 19.507-20.455 42.036-38.243 66.937-52.856 13.545-7.895 18.393-25.209 10.94-38.785-3.206-6.918-9.56-12.039-17.519-14.105-15.939-4.629-32.735-6.141-45.599-6.941l-0.287-0.013a257.35 257.35 0 0 0-7.717-0.116c-13.233 0-26.526 1.004-40.681 3.076-15.425 2.333-30.772 6.342-46.928 12.258-0.698 0.256-1.396 0.517-2.091 0.78 8.618-8.592 18.216-16.61 28.664-23.938 14.622-9.819 29.806-17.498 45.17-22.835 26.713-9.421 53.244-12.766 78.147-9.733 24.989 2.892 47.937 11.739 68.203 26.295l0.1 0.07c16.396 11.442 35 17.49 53.801 17.49 18.842 0 37.598-6.034 54.239-17.449l0.164-0.115c20.264-14.574 43.121-23.419 67.992-26.298a150.063 150.063 0 0 1 18.055-1.079c19.5 0 39.701 3.639 60.08 10.832 15.326 5.324 30.512 13.004 45.137 22.827 10.365 7.245 20.018 15.281 28.828 23.991-0.576-0.219-1.152-0.436-1.73-0.65l-0.969-0.493-0.535-0.193c-14.951-5.38-30.166-9.324-45.221-11.723l-0.982-0.195-0.557-0.093c-16.822-2.259-32.817-3.168-47.571-2.708zM539.166 882.297c-2.945 0.684-7.635 0.703-12.168 0.703h-70.133c17.937-14 33.887-29.205 47.606-46.701 40.281-50.582 61.572-114.882 61.572-185.933 0-20.744-2.084-43.009-6.197-66.177l-41.867-234.015c6.656 0.214 13.314 0.774 19.902 1.677l43.354 242.351c10.258 56.617 15.459 107.6 15.459 151.529 0 43.027-5.367 76.643-15.949 99.908l-0.043 0.096c-9.092 20.621-22.963 32.903-41.232 36.487l-0.304 0.075z" p-id="20024" fill="#2aa515"></path></svg>