<?xml version="1.0" standalone="no"?><!DOCTYPE svg PUBLIC "-//W3C//DTD SVG 1.1//EN" "http://www.w3.org/Graphics/SVG/1.1/DTD/svg11.dtd"><svg t="1525752930612" class="icon" style="" viewBox="0 0 1024 1024" version="1.1" xmlns="http://www.w3.org/2000/svg" p-id="3566" xmlns:xlink="http://www.w3.org/1999/xlink" width="200" height="200"><defs><style type="text/css"></style></defs><path d="M859.264 949.248H164.736a162.304 162.304 0 0 1-162.048-162.112V300.992a162.24 162.24 0 0 1 162.048-162.048h694.528a162.176 162.176 0 0 1 161.984 162.048v486.144a162.24 162.24 0 0 1-161.984 162.112zM164.736 185.216c-63.808 0-115.776 51.968-115.776 115.776v486.144c0 63.872 51.968 115.776 115.776 115.776h694.528c63.744 0 115.776-51.904 115.776-115.776V300.992c0-63.808-52.032-115.776-115.776-115.776H164.736z" fill="#4D4D4D" p-id="3567"></path><path d="M743.488 185.216H280.512V92.608C280.512 41.536 322.048 0 373.184 0h277.696a92.8 92.8 0 0 1 92.608 92.608v92.608zM326.784 138.88h370.368v-46.272a46.272 46.272 0 0 0-46.272-46.272H373.184c-25.6 0-46.4 20.736-46.4 46.272v46.272zM234.176 833.408a23.104 23.104 0 0 1-23.104-23.168V254.656a23.104 23.104 0 1 1 46.272 0v555.584c0 12.8-10.368 23.168-23.168 23.168zM789.76 833.408a23.168 23.168 0 0 1-23.104-23.168V254.656a23.168 23.168 0 1 1 46.208 0v555.584c0 12.8-10.24 23.168-23.104 23.168z" fill="#4D4D4D" p-id="3568"></path></svg>