<?xml version="1.0" standalone="no"?><!DOCTYPE svg PUBLIC "-//W3C//DTD SVG 1.1//EN" "http://www.w3.org/Graphics/SVG/1.1/DTD/svg11.dtd"><svg t="1525796819526" class="icon" style="" viewBox="0 0 1024 1024" version="1.1" xmlns="http://www.w3.org/2000/svg" p-id="20801" xmlns:xlink="http://www.w3.org/1999/xlink" width="200" height="200"><defs><style type="text/css"></style></defs><path d="M876.0832 875.52H193.19296c-25.0624-0.08192-45.32224-18.4064-45.28128-40.96 0-22.656 20.29568-40.96512 45.28128-40.96512H876.0832V875.52zM329.95328 143.83104H512v270.56128l-79.30368-42.82368a24.99072 24.99072 0 0 0-23.43936 0l-79.30368 42.82368V143.83104zM898.97984 102.4H193.19296C143.0016 102.49216 102.3744 139.15136 102.4 184.32v655.35488C102.4 884.92032 143.01696 921.6 193.19296 921.6h705.65376c12.55424 0 22.74816-9.19552 22.74816-20.66944V123.06944C921.6 111.65696 911.33952 102.4 898.97984 102.4z" fill="#2aa515" p-id="20802"></path></svg>